<svg height="413pt" viewBox="-43 0 413 413.46811" width="413pt" xmlns="http://www.w3.org/2000/svg"><path d="m26.609375 91.960938c-10.457031-.015626-19.246094-7.855469-20.453125-18.242188-.917969-7.222656-1.152344-14.511719-.707031-21.777344 1.066406-11.25 10.992187-19.542968 22.25-18.59375 11.261719.949219 19.660156 10.789063 18.824219 22.058594-.183594 4.542969.015624 9.089844.589843 13.597656 1.304688 11.308594-6.800781 21.535156-18.109375 22.84375-.796875.085938-1.59375.121094-2.394531.113282zm0 0" fill="#fff"/><path d="m189.0625 384.269531c-8.105469-.003906-15.453125-4.753906-18.785156-12.140625-3.328125-7.390625-2.019532-16.042968 3.34375-22.117187 6.238281-7.257813 10.765625-15.828125 13.253906-25.070313 1.816406-6.511718 6.714844-11.714844 13.105469-13.925781-5.980469-3.28125-9.949219-9.316406-10.597657-16.109375-.984374-10.289062-3.710937-20.332031-8.0625-29.707031-2.917968-6.3125-2.457031-13.667969 1.226563-19.566407-6.855469 1.261719-13.886719-1.03125-18.683594-6.089843-7.332031-7.664063-15.761719-14.199219-25.015625-19.386719-6.585937-3.722656-10.601562-10.761719-10.453125-18.328125-6.207031 5.621094-15.1875 6.9375-22.742187 3.332031-12.707032-6.015625-24.761719-13.328125-35.96875-21.820312-7.25-5.535156-10-15.183594-6.753906-23.710938-8.511719 3.429688-18.261719.820313-23.921876-6.398437-8.984374-11.425781-16.359374-24.027344-21.917968-37.453125-4.347656-10.519532.65625-22.574219 11.175781-26.921875 10.523437-4.347657 22.574219.65625 26.921875 11.179687 4.117188 9.945313 9.578125 19.28125 16.234375 27.742188 4.472656 5.6875 5.632813 13.304687 3.054687 20.066406 6.75-2.734375 14.441407-1.691406 20.222657 2.738281 8.953125 6.757813 18.582031 12.574219 28.726562 17.359375 7.292969 3.484375 11.878907 10.910156 11.722657 18.992188 6.589843-5.96875 16.261718-7.042969 24-2.664063 12.808593 7.199219 24.472656 16.261719 34.613281 26.890625 6.464843 6.820313 7.503906 17.144532 2.527343 25.113282 9.257813-1.703126 18.492188 3.085937 22.429688 11.632812 6.308594 13.597656 10.257812 28.167969 11.6875 43.089844.898438 9.464844-4.789062 18.320312-13.773438 21.433594 8.390626 4.617187 12.496094 14.402343 9.914063 23.625-4.164063 15.230468-11.703125 29.328124-22.050781 41.253906-3.90625 4.429687-9.527344 6.964844-15.433594 6.960937zm0 0" fill="#74c7c5"/><path d="m140.289062 408.464844c-11.007812-.035156-20.046874-8.71875-20.523437-19.714844-.476563-11 7.769531-20.433594 18.734375-21.425781 4.320312-.367188 8.585938-1.222657 12.714844-2.550781 10.828125-3.523438 22.457031 2.394531 25.980468 13.21875 3.523438 10.824218-2.394531 22.457031-13.21875 25.980468-7.09375 2.285156-14.425781 3.761719-21.851562 4.402344-.617188.066406-1.226562.089844-1.835938.089844zm0 0" fill="#fff"/><path d="m119.632812 25.308594c1.4375-7.242188-2.773437-14.414063-9.800781-16.6875-4.875-1.636719-9.890625-2.8125-14.988281-3.511719-7.949219-.847656-15.097656 4.882813-16 12.828125-.90625 7.945312 4.765625 15.132812 12.703125 16.097656 3.167969.5 6.289063 1.269532 9.328125 2.289063 7.652344 2.472656 15.855469-1.722657 18.328125-9.371094.175781-.539063.316406-1.089844.429687-1.644531zm0 0" fill="#fff"/><path d="m299.535156 178.316406c1.128906-5.617187-1.144531-11.371094-5.804687-14.703125-4.660157-3.332031-10.84375-3.621093-15.792969-.734375-5.894531 3.3125-12.453125 5.261719-19.199219 5.703125-4.761719.355469-9.042969 3.023438-11.457031 7.144531-1.445312-4.597656-5.074219-8.183593-9.6875-9.574218-6.988281-2.109375-13.566406-5.390625-19.457031-9.703125-3.964844-2.894531-9.125-3.597657-13.71875-1.859375 1.824219-4.574219 1.210937-9.761719-1.628907-13.785156-4.289062-6.136719-7.644531-12.875-9.957031-20-1.667969-5.078126-5.984375-8.832032-11.242187-9.777344 4.746094-3.519532 6.902344-9.554688 5.453125-15.285156-2.402344-9.632813-5.796875-18.996094-10.121094-27.933594-2.832031-5.789063-9.128906-9.027344-15.484375-7.964844 3.554688-5.414062 3.101562-12.523438-1.109375-17.445312-6.667969-7.804688-14.375-14.660157-22.902344-20.367188-6.683593-4.472656-15.722656-2.675781-20.191406 4.007812-4.472656 6.679688-2.675781 15.722657 4.007813 20.191407 6.316406 4.226562 12.023437 9.300781 16.960937 15.082031 3.320313 3.886719 8.433594 5.742188 13.472656 4.898438-2.832031 4.296874-3.179687 9.777343-.90625 14.398437 3.441407 7.136719 6.140625 14.605469 8.054688 22.296875 1.402343 5.535156 5.910156 9.738281 11.527343 10.75-5.050781 3.738281-7.132812 10.289062-5.171874 16.257812 3.210937 9.867188 7.867187 19.199219 13.824218 27.695313 3.824219 5.417969 10.824219 7.570313 17.027344 5.230469-2.460938 6.175781-.425781 13.234375 4.945312 17.148437 8.542969 6.253907 18.085938 11.007813 28.21875 14.066407 6.429688 1.933593 13.351563-.777344 16.753907-6.566407 2.035156 6.449219 8.242187 10.648438 14.984375 10.140625 11.125-.773437 21.929687-4.042968 31.625-9.554687 3.621094-2.09375 6.167968-5.652344 6.976562-9.757813zm0 0" fill="#fff"/><path d="m323.046875 147.898438c1.503906-7.628907-3.257813-15.089844-10.804687-16.945313-7.550782-1.855469-15.226563 2.550781-17.433594 10.003906-.855469 2.941407-2.039063 5.777344-3.53125 8.453125-3.941406 7.007813-1.453125 15.882813 5.554687 19.820313 7.007813 3.941406 15.878907 1.453125 19.820313-5.554688 2.570312-4.59375 4.613281-9.464843 6.089844-14.519531.121093-.414062.222656-.839844.304687-1.257812zm0 0" fill="#fff"/><g fill="#2f2754"><path d="m235.40625 290.523438c-1.480469-15.484376-5.578125-30.605469-12.121094-44.71875-1.183594-2.464844-4.125-3.523438-6.605468-2.375-2.484376 1.148437-3.582032 4.074218-2.472657 6.570312 6.070313 13.085938 9.871094 27.109375 11.246094 41.464844.703125 7.171875-3.609375 13.890625-10.425781 16.238281-1.867188.644531-3.179688 2.328125-3.347656 4.300781-.167969 1.96875.839843 3.851563 2.574218 4.804688 6.378906 3.476562 9.496094 10.90625 7.507813 17.894531-3.964844 14.503906-11.136719 27.933594-20.988281 39.292969-5.710938 6.464844-15.574219 7.074218-22.035157 1.367187-6.464843-5.710937-7.074219-15.574219-1.367187-22.039062 6.738281-7.828125 11.632812-17.066407 14.324218-27.039063 1.386719-4.929687 5.09375-8.867187 9.929688-10.546875 1.863281-.648437 3.171875-2.332031 3.339844-4.300781.164062-1.964844-.839844-3.847656-2.566406-4.800781-4.53125-2.488281-7.539063-7.058594-8.035157-12.207031-1.039062-10.847657-3.914062-21.441407-8.503906-31.328126-2.210937-4.78125-1.863281-10.359374.933594-14.828124 1.050781-1.679688 1.007812-3.816407-.101563-5.457032-1.113281-1.636718-3.085937-2.464844-5.035156-2.105468-5.199219.960937-10.53125-.773438-14.167969-4.613282-7.675781-8.023437-16.496093-14.859375-26.179687-20.292968-4.992188-2.820313-8.03125-8.152344-7.917969-13.882813.035156-1.996094-1.117187-3.820313-2.929687-4.644531-1.816407-.828125-3.949219-.496094-5.429688.84375-4.695312 4.265625-11.503906 5.265625-17.226562 2.523437-12.398438-5.867187-24.15625-12.996093-35.089844-21.277343-5.464844-4.210938-7.542969-11.5-5.117188-17.960938.660156-1.675781.371094-3.578125-.757812-4.980469-1.132813-1.402343-2.929688-2.085937-4.707032-1.792969-1.777343.292969-3.261718 1.519532-3.878906 3.210938-3.980468 10.601562-.574218 22.558594 8.398438 29.464844 11.476562 8.699218 23.820312 16.191406 36.835937 22.355468 6.652344 3.195313 14.359375 3.359376 21.136719.445313 1.976562 6.101563 6.167969 11.242187 11.75 14.398437 8.820312 4.945313 16.859375 11.171876 23.851562 18.472657 3.945313 4.171875 9.179688 6.890625 14.863282 7.722656-1.308594 5.5625-.714844 11.402344 1.6875 16.589844 4.113281 8.859375 6.691406 18.355469 7.628906 28.082031.523438 5.546875 2.847656 10.773438 6.617188 14.882812-4.339844 3.367188-7.484376 8.039063-8.964844 13.332032-2.28125 8.515625-6.4375 16.414062-12.167969 23.117187-9.34375 10.609375-8.339844 26.777344 2.242187 36.152344.316407.277344.6875.476563 1.015626.742187.328124 7.007813-4.042969 13.382813-10.699219 15.601563-6.738281 2.171875-13.695313 3.578125-20.75 4.191406-8.585938.753907-16.160157-5.59375-16.917969-14.179687-.757812-8.589844 5.589844-16.164063 14.179688-16.921875 4.695312-.402344 9.332031-1.332031 13.820312-2.769531 2.628906-.855469 4.066406-3.675782 3.214844-6.300782-.851563-2.628906-3.671875-4.070312-6.300782-3.21875-3.765624 1.210938-7.65625 1.992188-11.597656 2.328125-13.816406.992188-24.339844 12.792969-23.75 26.632813.59375 13.839844 12.089844 24.695312 25.941406 24.5.75 0 1.511719-.03125 2.277344-.09375 7.800782-.679688 15.503906-2.238282 22.957032-4.644532 9.097656-3.027343 15.757812-10.859374 17.285156-20.324218 9.285156 2.535156 19.199218-.496094 25.480468-7.785156 10.84375-12.484376 18.746094-27.25 23.121094-43.199219 2.421875-8.523438.246094-17.691407-5.75-24.214844 6.929688-5.386719 10.609375-13.949219 9.746094-22.679687zm0 0"/><path d="m193.660156 240.507812c1.125.707032 2.484375.933594 3.777344.632813s2.414062-1.101563 3.113281-2.230469c6.191407-9.902344 4.898438-22.734375-3.140625-31.199218-10.480468-10.992188-22.539062-20.359376-35.777344-27.800782-6.957031-3.960937-15.371093-4.425781-22.722656-1.265625-2.171875-6.683593-6.988281-12.1875-13.324218-15.222656-1.617188-.789063-3.53125-.652344-5.015626.363281-1.484374 1.011719-2.3125 2.742188-2.164062 4.535156.144531 1.789063 1.242188 3.367188 2.871094 4.125 5.523437 2.648438 8.992187 8.277344 8.878906 14.398438-.035156 1.996094 1.117188 3.824219 2.933594 4.648438 1.816406.824218 3.949218.492187 5.425781-.851563 4.996094-4.523437 12.332031-5.332031 18.1875-2 12.378906 6.953125 23.652344 15.710937 33.449219 25.980469 4.898437 5.15625 5.691406 12.976562 1.925781 19.007812-1.460937 2.339844-.753906 5.417969 1.582031 6.878906zm0 0"/><path d="m108.128906 165.542969c2.386719 1.390625 5.445313.582031 6.835938-1.804688 1.390625-2.382812.585937-5.445312-1.800782-6.835937l-1.417968-.835938c-2.371094-1.421875-5.441406-.652344-6.863282 1.714844-1.417968 2.367188-.648437 5.441406 1.71875 6.859375zm0 0"/><path d="m49.089844 154.871094c-2.40625-1.035156-4.515625-2.65625-6.132813-4.71875-8.699219-11.066406-15.839843-23.277344-21.222656-36.285156-3.292969-7.96875.496094-17.09375 8.460937-20.386719 7.964844-3.292969 17.09375.496093 20.386719 8.460937 4.289063 10.371094 9.984375 20.101563 16.917969 28.925782 3.410156 4.296874 4.289062 10.078124 2.316406 15.199218-.699218 1.855469-.234375 3.949219 1.183594 5.335938 1.417969 1.386718 3.523438 1.804687 5.363281 1.0625 5.117188-2.054688 10.933594-1.265625 15.316407 2.074218 2.195312 1.578126 5.25 1.125 6.890624-1.023437 1.644532-2.148437 1.28125-5.210937-.816406-6.917969-4.855468-3.6875-10.863281-5.53125-16.949218-5.199218.203124-6.035157-1.722657-11.949219-5.441407-16.703126-6.367187-8.105468-11.597656-17.046874-15.539062-26.570312-2.863281-7.027344-8.710938-12.410156-15.949219-14.6875-7.238281-2.28125-15.117188-1.214844-21.492188 2.902344-6.070312-1.722656-10.507812-6.929688-11.25-13.199219-.871093-6.886719-1.105468-13.84375-.699218-20.773437.75-8.589844 8.320312-14.945313 16.910156-14.195313 8.589844.753906 14.945312 8.324219 14.191406 16.914063-.199218 4.832031.007813 9.671874.613282 14.46875.179687 1.796874 1.3125 3.359374 2.964843 4.085937 1.65625.726563 3.570313.503906 5.015625-.582031 1.445313-1.085938 2.191406-2.867188 1.953125-4.65625-.535156-4.179688-.726562-8.394532-.574219-12.605469 1.183594-14.09375-9.285156-26.480469-23.378906-27.664063-14.09375-1.183593-26.480468 9.285157-27.664062 23.378907-.46875025 7.601562-.222656 15.226562.730468 22.78125.992188 8.382812 6.035157 15.742187 13.492188 19.691406-4.582031 7.058594-5.402344 15.921875-2.195312 23.699219 5.730468 13.859375 13.332031 26.867187 22.597656 38.65625 2.652344 3.382812 6.117187 6.042968 10.066406 7.738281 2.539062 1.085937 5.480469-.09375 6.566406-2.632813 1.085938-2.542968-.09375-5.480468-2.632812-6.566406zm0 0"/><path d="m188.105469 122.371094.527343 1.546875c.574219 1.707031 2.019532 2.976562 3.792969 3.320312 1.769531.339844 3.585938-.296875 4.753907-1.667969 1.167968-1.371093 1.507812-3.269531.890624-4.960937l-.46875-1.378906c-.867187-2.625-3.695312-4.046875-6.320312-3.179688-2.621094.867188-4.042969 3.695313-3.175781 6.320313zm0 0"/><path d="m314.289062 126.296875c-10.359374-3.035156-21.21875 2.890625-24.269531 13.246094-.746093 2.578125-1.785156 5.0625-3.089843 7.40625-1.554688 2.769531-2.40625 5.878906-2.484376 9.054687-3.160156.101563-6.25.976563-8.996093 2.546875-5.238281 2.933594-11.070313 4.65625-17.066407 5.042969-3.660156.277344-7.171874 1.578125-10.128906 3.761719-2.429687-2.839844-5.625-4.921875-9.203125-6-6.449219-1.941407-12.523437-4.964844-17.960937-8.9375-3.101563-2.265625-6.796875-3.570313-10.632813-3.746094-.105469-3.851563-1.347656-7.589844-3.578125-10.738281-.945312-1.332032-1.847656-2.722656-2.707031-4.164063-1.414063-2.371093-4.484375-3.148437-6.855469-1.730469-2.371094 1.414063-3.148437 4.484376-1.730468 6.855469.984374 1.648438 2.023437 3.25 3.117187 4.800781 1.871094 2.640626 2.273437 6.050782 1.070313 9.058594-.726563 1.835938-.300782 3.929688 1.082031 5.339844 1.382812 1.40625 3.46875 1.871094 5.316406 1.179688 3.015625-1.140626 6.40625-.683594 9.007813 1.21875 6.347656 4.644531 13.433593 8.179687 20.960937 10.453124 3.03125.914063 5.417969 3.269532 6.367187 6.292969.597657 1.882813 2.246094 3.238281 4.207032 3.460938 1.964844.222656 3.875-.734375 4.875-2.4375 1.585937-2.703125 4.398437-4.453125 7.523437-4.6875 7.496094-.5 14.785157-2.675781 21.328125-6.367188 4.5625-2.652343 10.414063-1.101562 13.0625 3.460938 2.652344 4.566406 1.101563 10.414062-3.464844 13.066406-9.039062 5.136719-19.121093 8.175781-29.496093 8.890625-4.429688.359375-8.519531-2.40625-9.835938-6.65625-.589843-1.886719-2.242187-3.246094-4.207031-3.46875s-3.875.734375-4.875 2.441406c-2.226562 3.804688-6.777344 5.585938-10.996094 4.308594-9.582031-2.898438-18.601562-7.398438-26.679687-13.308594-3.527344-2.570312-4.863281-7.207031-3.25-11.261718.730469-1.835938.308593-3.933594-1.074219-5.34375-1.386719-1.414063-3.472656-1.875-5.324219-1.183594-4.074219 1.539062-8.671875.125-11.175781-3.433594-5.675781-8.089844-10.117188-16.980469-13.175781-26.378906-1.296875-3.917969.078125-8.222656 3.398437-10.671875 1.605469-1.183594 2.351563-3.210938 1.898438-5.152344s-2.015625-3.429687-3.976563-3.785156c-3.6875-.675781-6.644531-3.433594-7.574219-7.0625-1.992187-8.019531-4.808593-15.816407-8.398437-23.261719-1.5-3.027344-1.273437-6.625.597656-9.441406 1.089844-1.660156 1.09375-3.808594.007813-5.472656-1.085938-1.664063-3.050782-2.527344-5.007813-2.203126-3.308593.574219-6.675781-.640624-8.851562-3.199218-5.238281-6.132813-11.292969-11.515625-18-16-4.390625-2.941406-5.570313-8.882813-2.632813-13.277344 2.941406-4.394531 8.882813-5.574219 13.277344-2.636719 8.152344 5.457031 15.515625 12.003907 21.886719 19.460938 2.75 3.234375 3.046875 7.894531.730469 11.453125-1.09375 1.660156-1.097657 3.8125-.011719 5.476562 1.085937 1.667969 3.054687 2.53125 5.015625 2.203125 4.167968-.679687 8.292968 1.441407 10.160156 5.230469 4.175781 8.628906 7.449219 17.664062 9.769531 26.964844.957031 3.769531-.46875 7.742187-3.601562 10.039062-2.21875 1.644532-2.6875 4.777344-1.042969 6.996094s4.777344 2.683594 6.996094 1.042969c6.394531-4.714844 9.292968-12.835938 7.328125-20.535157-2.492188-9.964843-6.003907-19.652343-10.480469-28.898437-2.558594-5.195313-7.273438-9-12.894531-10.398437.996093-5.75-.617188-11.644532-4.398438-16.089844-6.964843-8.152344-15.015625-15.308594-23.929687-21.273438-5.476563-3.683594-12.445313-4.347656-18.519532-1.765625-6.074218 2.585938-10.429687 8.066407-11.574218 14.566407-2.328125 1.386718-5.132813 1.707031-7.710938.886718-3.351562-1.121094-6.792968-1.957031-10.285156-2.5-5.183594-.664062-8.871094-5.367187-8.28125-10.558594.589844-5.191406 5.238281-8.945312 10.4375-8.429687 4.757812.664063 9.445312 1.769531 14 3.300781 2.628906.851563 5.445312-.589844 6.296875-3.21875.847656-2.628906-.59375-5.445312-3.222656-6.296875-5.195313-1.742187-10.542969-2.988281-15.976563-3.722656-10.664062-1.132813-20.25 6.535156-21.488281 17.1875-1.242187 10.652344 6.332031 20.316406 16.96875 21.660156 2.875.464844 5.707031 1.164063 8.464844 2.09375 1.957031.632813 4.003906.957031 6.058593.957031 1.949219-.019531 3.882813-.335937 5.734376-.933593 1.421874 3.777343 3.992187 7.019531 7.34375 9.269531 5.9375 3.976562 11.304687 8.746094 15.945312 14.183594 2.660156 3.09375 6.222656 5.285156 10.1875 6.261718-.714844 4.066407-.125 8.253907 1.683594 11.964844 3.289062 6.828125 5.871094 13.972656 7.699218 21.328125 1.195313 4.691407 4.082032 8.773438 8.109376 11.460938-2.789063 4.820312-3.386719 10.609375-1.636719 15.898437 3.363281 10.335938 8.246093 20.117188 14.488281 29.015625 3.476562 4.945313 9.046875 8.003907 15.085938 8.285157.167968 6.058593 3.132812 11.695312 8.027343 15.265624 9.003907 6.582032 19.054688 11.585938 29.730469 14.800782 5.890625 1.789062 12.28125.695312 17.234375-2.960938 3.703125 4.324219 9.109375 6.808594 14.800781 6.800782.5 0 1.007813 0 1.515625-.054688 11.875-.832031 23.410157-4.324219 33.757813-10.210938 9.339844-5.421874 12.515625-17.390624 7.089844-26.730468-1.796876-3.078125-4.410157-5.601563-7.550782-7.289063-.449218-2.21875-.089844-4.527343 1.015625-6.5 1.679688-3.003906 3.011719-6.191406 3.972657-9.492187 1.449218-4.894532 6.484374-7.785156 11.441406-6.566406 4.953125 1.214843 8.078125 6.109374 7.097656 11.117187-.054688.269531-.117188.539063-.203125.832031-1.375 4.691406-3.273437 9.210938-5.664063 13.476563-1.355468 2.40625-.5 5.453125 1.90625 6.808593 2.40625 1.355469 5.457032.5 6.808594-1.90625 2.75-4.917968 4.9375-10.128906 6.519532-15.535156.171874-.566406.308593-1.144531.402343-1.710937 2.039063-9.933594-3.898437-19.765625-13.636719-22.589844zm0 0"/></g></svg>