<svg height="413pt" viewBox="-30 0 413 413.44952" width="413pt" xmlns="http://www.w3.org/2000/svg"><path d="m284.761719 369.125c-11.132813-.003906-20.675781-7.953125-22.691407-18.902344-2.015624-10.949218 4.078126-21.773437 14.480469-25.738281 18.945313-7.199219 29.371094-35.140625 23.746094-63.5625-2.628906-13.265625-15.777344-56.523437-73.359375-54.859375-2.054688.054688-4.105469.078125-6.136719.078125-122.496093 0-175.785156-100.507813-178.03125-104.851563-5.761719-11.300781-1.320312-25.128906 9.9375-30.964843 11.261719-5.835938 25.121094-1.488281 31.03125 9.730469 1.839844 3.488281 43.359375 79.941406 137.199219 79.941406 1.570312 0 3.136719 0 4.742188-.0625 74.398437-1.839844 111.199218 48.316406 119.863281 92 10.199219 51.515625-11.917969 100.15625-52.589844 115.648437-2.613281 1.011719-5.386719 1.535157-8.191406 1.542969zm0 0" fill="#74c7c5"/><path d="m134.71875 25.964844c.613281 2.691406 3.296875 4.378906 5.988281 3.761718 2.695313-.613281 4.378907-3.296874 3.761719-5.988281-.4375-1.925781-.9375-3.890625-1.5-5.90625-.769531-2.621093-3.503906-4.136719-6.136719-3.40625-2.632812.734375-4.1875 3.449219-3.492187 6.089844.511718 1.859375.972656 3.675781 1.378906 5.449219zm0 0" fill="#2f2754"/><path d="m321.21875 355.667969c25.464844-23.597657 37.460938-63.246094 29.253906-104.6875-8.398437-42.378907-42.0625-90.753907-109.464844-95.65625 14.796876-9.558594 32.339844-26.542969 26.796876-51.570313-.59375-2.699218-3.265626-4.398437-5.960938-3.804687-2.695312.597656-4.398438 3.265625-3.800781 5.964843 6.589843 29.75-31.863281 46.59375-37.96875 49.066407-21.238281.027343-42.238281-4.472657-61.601563-13.199219 15.65625-9.671875 46.1875-34.074219 40.589844-74.820312-.203125-1.804688-1.367188-3.359376-3.042969-4.058594-1.675781-.699219-3.597656-.433594-5.023437.691406-1.425782 1.125-2.128906 2.933594-1.835938 4.726562 5.710938 41.535157-31.726562 63.253907-41.324218 68.097657-15.5625-8.722657-29.542969-20-41.363282-33.363281 13.648438-4.796876 40.058594-18.863282 40.6875-55.878907.042969-2.761719-2.160156-5.039062-4.925781-5.082031h-.082031c-2.730469 0-4.953125 2.1875-5 4.914062.335937 22.800782-15.320313 42.726563-37.554688 47.792969-4.257812-5.363281-8.070312-11.0625-11.402344-17.042969-6.53125-12.460937-21.257812-18.179687-34.484374-13.398437-5.855469-5.78125-21.703126-24.769531-19.003907-58.960937.214844-2.753907-1.835937-5.160157-4.589843-5.3789068-1.324219-.1210932-2.644532.2968748-3.65625 1.1640628-1.011719.863281-1.632813 2.101562-1.722657 3.429687-2.769531 35.066407 12.152344 56.273438 20.132813 64.96875-9.726563 8.488281-12.414063 22.511719-6.523438 34 8.769532 15.679688 19.578125 30.132813 32.140625 42.984375-13.152343 5.695313-44.304687 16.636719-62.0625 1.867188-2.121093-1.769532-5.277343-1.480469-7.042969.644531-1.769531 2.121094-1.4804682 5.273437.644532 7.042969 8.527344 6.675781 19.152344 10.105468 29.976562 9.679687 15.996094-.699219 31.679688-4.675781 46.078125-11.679687 11.179688 10.652344 23.476563 20.070312 36.679688 28.082031-7.035157 8.882813-26.207031 28.777344-55.488281 26.402344-2.75-.226563-5.167969 1.820312-5.394532 4.574219-.226562 2.75 1.824219 5.167968 4.574219 5.394531 2 .164062 3.925781.242187 5.832031.242187 32.121094 0 52.296875-22.332031 59.296875-31.601562 4.800781 2.585937 9.804688 5.050781 15.046875 7.320312 2.535156 1.097656 5.480469-.066406 6.578125-2.597656 1.097657-2.535156-.066406-5.480469-2.601562-6.578125-6.09375-2.644531-12.042969-5.605469-17.828125-8.875-.03125-.019531-.046875-.054687-.082032-.078125-.035156-.027344-.097656-.03125-.140624-.054688-32.210938-18.429687-58.90625-45.132812-77.332032-77.347656-4.539062-8.855468-1.0625-19.71875 7.777344-24.292968 8.839844-4.574219 19.714844-1.140626 24.324219 7.683593 1.773437 3.371094 44.589843 82.601563 141.617187 82.609375h.027344c1.601562 0 3.226562 0 4.859375-.0625 1.277344-.03125 2.546875-.046875 3.804687-.046875 68.972657 0 102.910157 47.089844 111.027344 88.035157 9.730469 49.113281-11.070312 95.382812-49.472656 110-2.042969.789062-4.210938 1.195312-6.402344 1.199218-7.492187-.03125-14.195312-4.660156-16.886718-11.652344-1.707032-4.476562-1.566407-9.453124.394531-13.824218 1.960937-4.375 5.582031-7.789063 10.0625-9.492188 21.148437-8.058594 32.949219-38.457031 26.875-69.199218-2.832031-14.261719-16.863281-60.644532-78.398438-58.882813-21.640625.679687-43.25-2.121094-64-8.304687-1.722656-.5625-3.613281-.148438-4.945312 1.082031-1.328125 1.226562-1.890625 3.082031-1.46875 4.839843.425781 1.761719 1.769531 3.15625 3.511719 3.644532 6.777343 2.042968 13.65625 3.726562 20.609374 5.039062-6.046874 8.488282-20.90625 24.082032-51.546874 30.464844-2.511719.519531-4.222657 2.855469-3.960938 5.40625s2.410156 4.492188 4.976562 4.492188c.34375 0 .6875-.035157 1.023438-.105469 38.71875-8.0625 55.222656-30 60.296875-38.488281 9.773437 1.335937 19.632813 2.003906 29.5 2 2.070313 0 4.171875-.027344 6.277344-.085938 53.804687-1.511719 65.867187 38.519531 68.3125 50.832031 5.078125 25.671875-4.175781 51.648438-20.621094 57.917969-2.003906.773438-3.917969 1.773438-5.699219 2.980469-18.191406-4.90625-37.386718-4.648438-55.441406.734375-2.640625.816406-4.117188 3.617187-3.304688 6.253906.816407 2.640625 3.617188 4.117188 6.253907 3.304688 14.421875-4.25 29.667969-4.90625 44.402343-1.910157-.6875 1.085938-1.300781 2.214844-1.835937 3.386719-4.703125 10.324219-2.625 22.472656 5.242187 30.648438-2.214843 7.941406-7.070312 29.800781 1.21875 45.566406 1.289063 2.445312 4.3125 3.382812 6.753907 2.097656 2.445312-1.285156 3.386719-4.308594 2.101562-6.753906-5.636719-10.707032-3.300781-26.140625-1.347656-34.601563 6.808594 3.191407 14.625 3.464844 21.636719.757813 6.589844-2.550782 12.816406-5.953125 18.515625-10.121094 5.628906 4.128906 18.941406 16.523438 18.109375 40.992188-.09375 2.757812 2.066406 5.074218 4.824218 5.167968h.175782c2.695312 0 4.902344-2.136718 4.992187-4.828125 1.355469-18.257812-6.152343-36.050781-20.175781-47.820312zm0 0" fill="#2f2754"/><g fill="#fff"><path d="m321.800781 255.453125h.402344c2.753906-.21875 4.808594-2.628906 4.585937-5.382813-1.335937-16.738281-11.269531-31.65625-19.371093-41.226562-1.144531-1.390625-2.953125-2.0625-4.726563-1.75-1.777344.3125-3.25 1.558594-3.851562 3.257812-.597656 1.699219-.238282 3.59375.945312 4.953126 7.148438 8.445312 15.910156 21.472656 17.039063 35.558593.214843 2.59375 2.378906 4.585938 4.976562 4.589844zm0 0"/><path d="m291.3125 204.539062c2.082031 0 3.945312-1.289062 4.679688-3.234374.734374-1.949219.183593-4.144532-1.378907-5.519532-1.847656-1.625-2.976562-2.496094-2.976562-2.496094-2.179688-1.675781-5.304688-1.277343-6.992188.894532-1.691406 2.171875-1.304687 5.300781.859375 7 .0625.050781 1.003906.800781 2.519532 2.117187.910156.800781 2.078124 1.242188 3.289062 1.238281zm0 0"/></g></svg>