<svg height="512pt" viewBox="-17 0 512 512" width="512pt" xmlns="http://www.w3.org/2000/svg"><path d="m408.390625 247.75c-23.652344-23.652344-37.382813-53.464844-41.199219-84.269531-14.628906-118.109375-153.230468-175.316407-243.925781-98.257813-4.894531 4.15625-9.660156 8.546875-14.28125 13.167969-92.230469 92.226563-91.722656 243.75 1.089844 335.386719 92.398437 91.222656 241.253906 90.863281 333.203125-1.085938.347656-.351562.695312-.699218 1.039062-1.050781 41.875-42.386719 35.132813-112.816406-14.304687-146.074219-7.628907-5.132812-14.875-11.070312-21.621094-17.816406zm0 0" fill="#bddbff"/><g fill="#57a4ff"><path d="m316.378906 241.0625c24.34375 24.34375 10.910156 50.378906-13.433594 74.722656s-50.378906 37.777344-74.722656 13.433594-37.777344-77.246094-13.433594-101.589844 77.246094-10.910156 101.589844 13.433594zm0 0"/><path d="m269.742188 135.664062c0 12.152344-9.847657 22-22 22-12.148438 0-21.996094-9.847656-21.996094-22 0-12.148437 9.847656-22 21.996094-22 12.152343 0 22 9.851563 22 22zm0 0"/><path d="m156.320312 278.421875c0 12.152344-9.851562 22-22 22-12.152343 0-22-9.847656-22-22 0-12.148437 9.847657-22 22-22 12.148438 0 22 9.851563 22 22zm0 0"/><path d="m359.246094 347.515625c0 12.148437-9.851563 22-22 22-12.152344 0-22-9.851563-22-22s9.847656-22 22-22c12.148437 0 22 9.851563 22 22zm0 0"/></g><path d="m286.378906 241.0625c24.34375 24.34375 10.910156 50.378906-13.433594 74.722656s-50.378906 37.777344-74.722656 13.433594-37.777344-77.246094-13.433594-101.589844 77.246094-10.910156 101.589844 13.433594zm0 0" fill="#ff7956"/><path d="m249.742188 135.664062c0 12.152344-9.847657 22-21.996094 22-12.152344 0-22-9.847656-22-22 0-12.148437 9.847656-22 22-22 12.148437 0 21.996094 9.851563 21.996094 22zm0 0" fill="#ffe477"/><path d="m136.320312 278.421875c0 12.152344-9.851562 22-22 22-12.148437 0-22-9.847656-22-22 0-12.148437 9.851563-22 22-22 12.148438 0 22 9.851563 22 22zm0 0" fill="#ffe477"/><path d="m339.246094 347.515625c0 12.148437-9.851563 22-22 22-12.148438 0-22-9.851563-22-22s9.851562-22 22-22c12.148437 0 22 9.851563 22 22zm0 0" fill="#ffe477"/><path d="m140.074219 413.777344c-92.8125-91.636719-93.316407-243.160156-1.089844-335.386719 4.621094-4.621094 9.386719-9.011719 14.28125-13.167969 24.117187-20.492187 51.621094-31.488281 79.28125-34.371094-37.265625-3.84375-76.417969 6.449219-109.28125 34.371094-4.894531 4.15625-9.660156 8.546875-14.28125 13.167969-92.226563 92.226563-91.722656 243.75 1.09375 335.386719 49.851563 49.21875 116.136719 71.777344 181.050781 67.671875-54.925781-3.46875-108.871094-26.027344-151.054687-67.671875zm0 0" fill="#57a4ff"/><path d="m228.222656 329.21875c-24.34375-24.34375-37.777344-77.246094-13.433594-101.589844 5.847657-5.851562 13.347657-9.519531 21.703126-11.378906-19.613282-3.605469-39.339844-.984375-51.703126 11.378906-24.34375 24.34375-10.910156 77.246094 13.433594 101.589844 14.042969 14.042969 28.648438 15.515625 43.167969 9.570312-4.429687-2.089843-8.828125-5.226562-13.167969-9.570312zm0 0" fill="#ff3f62"/><path d="m225.746094 135.664062c0-8.546874 4.875-15.957031 12-19.601562-3-1.53125-6.402344-2.398438-10-2.398438-12.152344 0-22 9.851563-22 22 0 12.152344 9.847656 22 22 22 3.597656 0 7-.863281 10-2.398437-7.125-3.640625-12-11.050781-12-19.601563zm0 0" fill="#ffb655"/><path d="m112.320312 278.421875c0-8.546875 4.875-15.957031 12-19.601563-3-1.53125-6.398437-2.398437-10-2.398437-12.148437 0-22 9.851563-22 22 0 12.152344 9.851563 22 22 22 3.601563 0 7-.863281 10-2.398437-7.125-3.640626-12-11.050782-12-19.601563zm0 0" fill="#ffb655"/><path d="m315.246094 347.515625c0-8.550781 4.875-15.960937 12-19.601563-3-1.53125-6.398438-2.398437-10-2.398437-12.148438 0-22 9.851563-22 22s9.851562 22 22 22c3.601562 0 7-.867187 10-2.398437-7.125-3.644532-12-11.054688-12-19.601563zm0 0" fill="#ffb655"/><path d="m257.242188 135.664062c0-16.265624-13.230469-29.5-29.496094-29.5-16.269532 0-29.5 13.234376-29.5 29.5 0 16.265626 13.230468 29.5 29.5 29.5 16.265625 0 29.496094-13.234374 29.496094-29.5zm-43.996094 0c0-7.992187 6.503906-14.5 14.5-14.5 7.992187 0 14.5 6.507813 14.5 14.5 0 7.996094-6.507813 14.5-14.5 14.5-7.996094 0-14.5-6.503906-14.5-14.5zm0 0"/><path d="m143.820312 278.421875c0-16.265625-13.234374-29.5-29.5-29.5-16.269531 0-29.5 13.234375-29.5 29.5s13.230469 29.5 29.5 29.5c16.265626 0 29.5-13.234375 29.5-29.5zm-29.5 14.5c-7.996093 0-14.5-6.503906-14.5-14.5 0-7.992187 6.503907-14.5 14.5-14.5 7.992188 0 14.5 6.507813 14.5 14.5 0 7.996094-6.507812 14.5-14.5 14.5zm0 0"/><path d="m287.746094 347.515625c0 16.265625 13.234375 29.5 29.5 29.5s29.5-13.234375 29.5-29.5-13.234375-29.5-29.5-29.5-29.5 13.234375-29.5 29.5zm29.5-14.5c7.996094 0 14.5 6.503906 14.5 14.5s-6.503906 14.5-14.5 14.5-14.5-6.503906-14.5-14.5 6.503906-14.5 14.5-14.5zm0 0"/><path d="m478.84375 334.171875c-2.8125-28.144531-16.875-53.53125-38.90625-70.671875h21.457031v-15h-41.246093c-2.214844-1.949219-4.367188-3.96875-6.453126-6.054688-5.425781-5.425781-10.339843-11.214843-14.714843-17.320312l31.492187-8.515625-3.914062-14.480469-35.972656 9.730469c-3.605469-6.515625-6.664063-13.3125-9.152344-20.347656l24.742187-14.4375-7.5625-12.953125-21.492187 12.542968c-1.0625-4.625-1.894532-9.328124-2.484375-14.105468-7.285157-58.8125-45.203125-107.757813-100.199219-129.195313-3.628906-1.414062-7.277344-2.6875-10.9375-3.824219v-29.539062h-15v25.679688c-16.28125-3.347657-32.699219-4.023438-48.753906-2.105469l-5.734375-20.832031-14.460938 3.980468 5.335938 19.386719c-16.082031 3.585937-31.625 9.832031-46.105469 18.652344l-13.835938-23.210938-12.882812 7.679688 14.277344 23.953125c-55.324219 41.355468-94.632813 114.171875-93.703125 195.316406h-32.636719v15h33.265625c1.046875 14.484375 3.375 28.902344 6.984375 43.058594l-33.335938 9.011718 3.914063 14.480469 33.578125-9.074219c4.398438 13.667969 10.03125 27.027344 16.910156 39.902344l-30.222656 17.625 7.558594 12.957032 30.140625-17.578126c6.640625 10.761719 14.203125 21.121094 22.6875 30.960938l11.359375-9.792969c-137.160156-159.070312 5.125-410.476562 166.148437-347.710937 50.175781 19.554687 84.101563 63.316406 90.761719 117.0625 4.1875 33.835937 19.175781 64.488281 43.335938 88.652344 6.972656 6.96875 14.625 13.273437 22.738281 18.734374 21.605469 14.53125 35.488281 37.8125 38.09375 63.875 2.625 26.234376-6.464844 52.007813-24.941407 70.710938-.328124.335938-.660156.667969-1.003906 1.007812-88.265625 88.269532-232.65625 89.070313-321.867187 1.785157l-10.488281 10.722656c39.210937 38.367187 89.132812 61.957031 142.882812 67.988281v24.121094h15v-22.902344c15.90625.808594 32.144531.101563 48.3125-2.257812l6.378906 23.152344 14.460938-3.984376-6.007813-21.800781c16.410157-3.441406 32.34375-8.554687 47.59375-15.253906l12.816407 21.496094 12.882812-7.683594-12.105469-20.300781c22.152344-11.433594 42.628907-26.351563 60.742188-44.464844.363281-.363281.726562-.726562 1.082031-1.085938 21.617188-21.886718 32.257812-52.042968 29.1875-82.742187zm0 0"/><path d="m165.859375 279.707031c3.65625 21.039063 13.773437 41.527344 27.058594 54.816407 27.527343 27.519531 57.8125 14.078124 85.332031-13.4375 27.613281-27.617188 40.953125-57.808594 13.433594-85.328126-5.3125-5.3125-11.835938-10.15625-19.394532-14.402343l-7.347656 13.074219c6.363282 3.578124 11.792969 7.59375 16.132813 11.933593 11.800781 11.800781 20.933593 29.75-13.433594 64.117188-34.371094 34.371093-52.316406 25.230469-64.113281 13.433593-11.019532-11.015624-19.789063-28.9375-22.890625-46.777343-3.273438-18.8125.171875-34.925781 9.453125-44.207031 13.949218-13.945313 39.019531-12.242188 57.835937-6l4.726563-14.238282c-29.871094-9.910156-57.222656-6.308594-73.167969 9.632813-12.96875 12.96875-17.804687 33.347656-13.625 57.382812zm0 0"/><path d="m276.140625 464.425781v-15c37.78125 0 74.566406-10.332031 106.390625-29.871093l7.847656 12.78125c-34.183594 20.992187-73.683594 32.085937-114.238281 32.089843zm122.929687-37.714843-8.445312-12.398438c3.957031-2.695312 7.878906-5.578125 11.660156-8.566406l9.304688 11.765625c-4.058594 3.207031-8.269532 6.300781-12.519532 9.199219zm20.484376-15.808594-9.84375-11.316406c3.613281-3.144532 7.175781-6.46875 10.585937-9.878907l10.609375 10.605469c-3.65625 3.65625-7.476562 7.21875-11.351562 10.589844zm0 0" fill="#fff"/><path d="m225.859375 324.585938s-.003906 0-.007813 0l.007813-15c.152344 0 3.746094-.066407 11.691406-5.898438l8.875 12.09375c-7.964843 5.84375-14.882812 8.804688-20.566406 8.804688zm28.871094-15.621094-10.039063-11.144532c1.707032-1.539062 3.480469-3.226562 5.269532-5.019531 1.710937-1.707031 3.328124-3.398437 4.808593-5.03125l11.105469 10.078125c-1.640625 1.8125-3.425781 3.683594-5.308594 5.5625-1.972656 1.972656-3.933594 3.84375-5.835937 5.554688zm17.988281-19.382813-12.042969-8.9375c4.097657-5.527343 5.421875-9.011719 5.84375-10.597656l14.492188 3.867187c-1.242188 4.652344-4.03125 9.925782-8.292969 15.667969zm0 0" fill="#fff"/><path d="m334.9375 167.476562c-3.773438-30.472656-17.851562-56.875-40.710938-76.347656-9.34375-7.957031-19.773437-14.410156-31-19.179687l5.867188-13.808594c12.628906 5.367187 24.355469 12.625 34.859375 21.570313 25.765625 21.949218 41.628906 51.65625 45.871094 85.921874zm-80.5-98.863281c-4.457031-1.488281-9.035156-2.71875-13.609375-3.660156l3.019531-14.691406c5.160156 1.0625 10.324219 2.449219 15.34375 4.128906zm-22.878906-5.179687c-4.652344-.570313-9.378906-.859375-14.050782-.859375v-15c5.28125 0 10.621094.328125 15.878907.972656zm0 0" fill="#fff"/></svg>