<?xml version="1.0" encoding="iso-8859-1"?>
<!-- Generator: Adobe Illustrator 19.0.0, SVG Export Plug-In . SVG Version: 6.00 Build 0)  -->
<svg version="1.1" id="Capa_1" xmlns="http://www.w3.org/2000/svg" xmlns:xlink="http://www.w3.org/1999/xlink" x="0px" y="0px"
	 viewBox="0 0 512.05 512.05" style="enable-background:new 0 0 512.05 512.05;" xml:space="preserve">
<g transform="matrix(1.25 0 0 -1.25 0 45)">
	<g>
		<g>
			<g>
				<path style="fill:#3E721D;" d="M147.18-303.439c7.134,76.322-50.256,85.811-73.011,69.211
					c-12.481-9.102-15.394-26.431-5.45-17.306c17.545,16.111,23.711,4.267,10.433-4.267s-15.644-24.417-0.944-13.517
					c14.689,10.9,18.716,3.8,7.339-10.183c-6.872-8.476,0.478-16.361,13.278,0.705c10.672,14.234,36.409,14.723,30.288-34.02
					C126.598-332.794,145.656-319.732,147.18-303.439"/>
				<path style="fill:#3E721D;" d="M237.531-64.244c-6.633,39.822-12.8,59.711-52.622,66.344
					c-39.822,6.645-73.011-19.911-73.011-19.911s6.645,39.822,26.556,53.1c7.805,5.211,13.266-19.911,19.911-19.911
					c6.633,0,13.266,19.911,33.178,19.911c6.645,0,6.645-19.911,13.278-19.911s25.52,6.565,26.544,0
					c1.434-9.239-1.9-19.672,3.322-23.939s17.67,1.684,21.629-5.564c3.971-7.236-6.94-17.67-5.985-22.403
					c0.956-4.745,8.181-6.645,5.985-15.644c-2.185-9.011-7.396-9.478-7.873-16.122c-0.478-6.633,10.069-12.299,7.873-19.183
					c-2.185-6.895-7.407-7.828-9.774-16.6c-2.367-8.784,6.155-7.396,3.789-16.384s-10.9-11.275-13.744-20.093
					c-2.844-8.806,7.578-10.706,2.367-19.24c-5.211-8.533-14.689-9.956-15.167-15.167c-0.478-5.211,2.378-9.318,0.478-17.692
					c-1.9-8.374-12.811-4.119-13.756-10.752s2.378-9.956,2.378-18.011s-8.067-9.489-7.122-17.545
					c0.956-8.055,8.533-1.9,13.278-11.378s-2.833-18.011,2.378-23.7c5.211-5.689,12.322,7.589,19.433,2.844
					c7.111-4.745,7.703-14.222,15.462-15.644c7.771-1.422,10.138,14.689,15.826,14.222c5.689-0.478,18.489-8.067,25.122-4.745
					c6.633,3.322,6.155,16.6,11.378,22.289c5.222,5.689,11.856,0.466,16.589,6.633c4.733,6.167-1.638,13.358-0.705,22.369
					c0.956,9.011,9.717,14.131,9.25,21.242c-0.466,7.111-7.589,7.111-10.433,14.7c-2.844,7.589,5.211,14.222,2.367,21.333
					s-15.155,9.478-14.689,16.589c0.466,7.111,5.222,15.167,2.844,23.233c-2.378,8.055-12.333,13.278-11.856,19.433
					c0.478,6.167,5.678,14.234,6.633,18.728c0.956,4.506-8.522,9.25-7.578,16.828c0.944,7.589,7.1,7.066,9.466,13.915
					s-8.522,10.263-2.833,19.035c5.689,8.772,8.545,3.072,13.278,7.817s-0.011,15.178,4.733,17.545s14.222,0.478,18.967,3.789
					c4.745,3.322,4.745,8.055,9.956,9.956s11.856-6.155,16.122-6.155s11.844,8.055,17.533,6.155
					c5.689-1.9,18.022-15.167,10.433-19.194c-7.589-4.028-65.434-6.884-65.9-33.428s31.778-146.978,22.289-177.3
					c-9.489-30.333-48.822-94.822-93.867-82.489c-45.045,12.322-98.611,39.822-85.811,82.022
					C188.231-190.128,229.464-103.805,237.531-64.244"/>
			</g>
			<path style="fill:#77B255;" d="M244.642-53.891c0-45.261-27.102-92.661-66.367-86.084c-60.564,10.126-63.784,29.434-73.011,17.59
				c-33.189-42.587-52.838,5.518-60.382,13.494c-1.9,2.002-39.174,12.982-39.174,33.985c0,13.631,19.911,27.523,33.189,14.006
				c19.593,0.501,92.911,70.053,139.378,70.053C224.731,9.154,244.642-25.878,244.642-53.891"/>
			<path style="fill:#292F33;" d="M171.643-44.356c0-7.339-5.939-13.278-13.278-13.278c-7.327,0-13.266,5.939-13.266,13.278
				c0,7.327,5.939,13.278,13.266,13.278C165.703-31.078,171.643-37.029,171.643-44.356"/>
			<path style="fill:#3E721D;" d="M38.898-80.867c0-5.495-4.46-3.322-9.956-3.322s-9.956-2.173-9.956,3.322
				c0,5.495,4.46,9.956,9.956,9.956S38.898-75.372,38.898-80.867"/>
			<path id="SVGCleanerId_0" style="fill:#FFFFFF;" d="M131.775-90.8c0-7.339-4.46-6.633-9.956-6.633s-9.956-0.705-9.956,6.633
				c0,7.327,4.46,26.544,9.956,26.544S131.775-83.473,131.775-90.8"/>
			<g transform="translate(-2.334 -0.584)">
				<path id="SVGCleanerId_0_1_" style="fill:#FFFFFF;" d="M105.219-97.445c0-7.339-4.46-6.633-9.956-6.633
					s-9.956-0.705-9.956,6.633c0,7.327,4.46,26.544,9.956,26.544S105.219-90.117,105.219-97.445"/>
			</g>
			<path style="fill:#3E721D;" d="M130.865-90.891c-35.214-5.029-70.713-13.926-85.993-17.966c1.9-2.014,4.585-6.588,8.055-11.617
				c16.759,4.335,48.401,11.958,79.815,16.441c3.63,0.523,6.144,3.891,5.632,7.521C137.851-92.882,134.471-90.356,130.865-90.891"/>
			<path style="fill:#77B255;" d="M244.028-65.723c0-49.778-19.502-93.309-33.519-127.09c-15.178-36.545-11.378-102.4,45.511-102.4
				s74.069,36.306,79.644,56.889c15.451,57.116-22.756,91.022-22.756,147.911c0,102.4,91.022,79.644,91.022,68.267
				s-78.893-15.633-34.133-102.4c44.749-86.767,45.511-249.094-113.778-249.094S96.731-272.458,119.487-226.947
				c16.111,32.222,45.511,80.862,5.689,102.901C99.2-109.664,244.028-65.723,244.028-65.723"/>
			<path style="fill:#3E721D;" d="M134.676-52.411c-2.913,0-5.825,1.115-8.044,3.334c-4.449,4.449-4.449,11.639,0,16.088
				c0.944,0.944,23.666,23.245,61.144,23.245c6.281,0,11.378-5.097,11.378-11.378S194.057-32.5,187.776-32.5
				c-27.705,0-44.885-16.407-45.056-16.577C140.502-51.296,137.589-52.411,134.676-52.411"/>
			<path style="fill:#5C913B;" d="M127.554-252.239c7.134,76.322-61.633,85.8-84.389,69.211
				c-12.481-9.102-15.394-26.431-5.45-17.317c17.545,16.111,23.711,4.267,10.433-4.267c-13.278-8.533-15.644-24.405-0.944-13.505
				c14.689,10.9,18.716,3.8,7.339-10.183c-6.872-8.476,0.478-16.361,13.278,0.705c10.672,14.234,47.787,14.723,41.665-34.02
				C106.971-281.594,126.029-268.532,127.554-252.239"/>
		</g>
	</g>
</g>
<g>
</g>
<g>
</g>
<g>
</g>
<g>
</g>
<g>
</g>
<g>
</g>
<g>
</g>
<g>
</g>
<g>
</g>
<g>
</g>
<g>
</g>
<g>
</g>
<g>
</g>
<g>
</g>
<g>
</g>
</svg>
