<?xml version="1.0" encoding="iso-8859-1"?>
<!-- Generator: Adobe Illustrator 19.0.0, SVG Export Plug-In . SVG Version: 6.00 Build 0)  -->
<svg version="1.1" id="Capa_1" xmlns="http://www.w3.org/2000/svg" xmlns:xlink="http://www.w3.org/1999/xlink" x="0px" y="0px"
	 viewBox="0 0 512.002 512.002" style="enable-background:new 0 0 512.002 512.002;" xml:space="preserve">
<path style="fill:#7CB777;" d="M498.8,157.466c-2.5-11.589-14.577-14.162-24.358-10.575c-26.567,9.635-40.573,37.538-45.21,63.786
	c-2.183,12.355-2.18,25.447-8.18,36.793c-10.513,19.882-33.037,31.931-55.31,25.648c-6.048-2.693-7.584-10.54-3.046-15.361
	c23.561-25.031-2.957-48.264-2.957-48.264s-7.051-13.094,11.079-53.381c50.359-112.804-17.122-104.747-53.381-104.747
	S297.297,0,256.002,0s-25.18,51.366-61.438,51.366s-103.739-8.057-53.381,104.747c18.129,40.287,11.079,53.381,11.079,53.381
	s-26.517,23.234-2.957,48.264c4.538,4.821,3.002,12.668-3.046,15.361c-22.274,6.284-44.797-5.766-55.31-25.648
	c-6-11.346-5.997-24.438-8.18-36.793c-4.637-26.248-18.642-54.15-45.209-63.786c-9.781-3.587-21.857-1.014-24.358,10.575
	c-1.059,4.908,0.505,10.284,3.882,13.975c3.518,3.846,8.888,4.997,12.879,8.199c16.266,13.049,13.652,36.7,14.837,55.03
	c0.651,10.082,2.969,20.413,6.962,30.312c10.543,26.141,32.563,46.958,59.152,55.717c-5.709,4.234-11.544,8.305-17.503,12.194
	c-12.391,8.086-24.14,18.037-32.826,30.107c-13.1,18.203-18.676,40.331-14.535,62.471c4.439,23.667,18.09,45.113,34.757,62.139
	c6.697,6.84,16.653,10.347,24.327,2.427c6.932-7.154,4.145-15.868-1.122-22.783c-15.992-21-30.047-53.528-8.185-75.775
	c7.67-7.805,17.93-12.576,27.286-17.925c11.18-6.39,22.936-11.74,33.874-18.559c8.253-5.178,16.83-10.925,25.126-17.283
	c-1.608,4.041-3.294,8.039-4.938,11.997c-10.162,24.477-17.741,49.394-15.814,76.167c2.056,28.578,14.246,54.648,28.062,79.229
	c3.491,6.211,11.348,8.778,17.616,5.39c5.659-3.059,8.099-9.693,6.104-15.544c0,0-0.212-0.616-0.213-0.62
	c-9.3-27.024-17.782-57.721-7.873-85.841c7.665-21.748,22.922-39.539,33.464-59.815c4.137-7.955,7.455-15.918,10.055-23.958
	c2.413,0.417,4.89,0.647,7.422,0.647s5.01-0.23,7.422-0.647c2.6,8.041,5.918,16.003,10.055,23.958
	c10.543,20.275,25.8,38.067,33.464,59.815c9.909,28.121,1.428,58.818-7.873,85.841c-0.001,0.004-0.213,0.62-0.213,0.62
	c-1.995,5.851,0.445,12.486,6.104,15.544c6.268,3.387,14.126,0.821,17.616-5.39c13.816-24.581,26.007-50.651,28.062-79.229
	c1.926-26.772-5.653-51.69-15.814-76.167c-1.643-3.959-3.33-7.957-4.938-11.997c8.296,6.358,16.873,12.105,25.126,17.283
	c10.937,6.82,22.694,12.169,33.874,18.559c9.356,5.348,19.617,10.121,27.286,17.925c21.863,22.246,7.807,54.774-8.185,75.775
	c-5.266,6.917-8.053,15.631-1.122,22.783c7.675,7.92,17.629,4.413,24.327-2.427c16.667-17.026,30.317-38.471,34.757-62.139
	c4.14-22.141-1.435-44.269-14.535-62.471c-8.685-12.069-20.436-22.021-32.826-30.107c-5.959-3.889-11.794-7.96-17.503-12.194
	c26.588-8.76,48.608-29.576,59.152-55.717c3.993-9.899,6.311-20.23,6.962-30.312c1.184-18.33-1.43-41.982,14.837-55.03
	c3.992-3.202,9.361-4.354,12.879-8.199C498.295,167.75,499.859,162.374,498.8,157.466z"/>
<g>
	<path style="fill:#34925D;" d="M308.705,192.04c-1.65,0-3.312-0.526-4.719-1.613c-3.376-2.609-3.998-7.462-1.39-10.839
		c21.134-27.35,25.238-70.073,25.277-70.501c0.386-4.247,4.134-7.387,8.39-6.997c4.247,0.383,7.381,4.133,7.001,8.382
		c-0.173,1.928-4.506,47.591-28.44,78.567C313.303,191.008,311.016,192.04,308.705,192.04z"/>
	<path style="fill:#34925D;" d="M203.298,192.04c-2.311,0-4.597-1.032-6.119-3.003c-23.934-30.974-28.266-76.638-28.439-78.567
		c-0.38-4.249,2.757-8.005,7.006-8.385c4.246-0.372,8.001,2.754,8.385,7.001l0,0c0.039,0.429,4.142,43.151,25.277,70.501
		c2.609,3.377,1.987,8.229-1.39,10.839C206.611,191.515,204.947,192.04,203.298,192.04z"/>
	<path style="fill:#34925D;" d="M256.002,154.774c-4.267,0-7.726-3.459-7.726-7.726v-85.61c0-4.267,3.459-7.726,7.726-7.726
		c4.267,0,7.726,3.459,7.726,7.726v85.61C263.728,151.315,260.269,154.774,256.002,154.774z"/>
</g>
<g>
	<path style="fill:#3A484A;" d="M176.418,248.874c-4.267,0-7.726-3.459-7.726-7.726v-14.403c0-4.267,3.459-7.726,7.726-7.726
		c4.267,0,7.726,3.459,7.726,7.726v14.403C184.145,245.415,180.685,248.874,176.418,248.874z"/>
	<path style="fill:#3A484A;" d="M335.586,248.874c-4.267,0-7.726-3.459-7.726-7.726v-14.403c0-4.267,3.459-7.726,7.726-7.726
		s7.726,3.459,7.726,7.726v14.403C343.312,245.415,339.853,248.874,335.586,248.874z"/>
	<path style="fill:#3A484A;" d="M256.002,256.562c-9.886,0-19.165-4.13-25.46-11.332c-2.808-3.213-2.481-8.094,0.732-10.902
		c3.213-2.808,8.094-2.481,10.902,0.732c3.359,3.844,8.399,6.049,13.825,6.049c5.426,0,10.466-2.205,13.825-6.049
		c2.808-3.213,7.689-3.541,10.902-0.732c3.213,2.808,3.541,7.689,0.732,10.902C275.167,252.431,265.888,256.562,256.002,256.562z"/>
</g>
<g>
</g>
<g>
</g>
<g>
</g>
<g>
</g>
<g>
</g>
<g>
</g>
<g>
</g>
<g>
</g>
<g>
</g>
<g>
</g>
<g>
</g>
<g>
</g>
<g>
</g>
<g>
</g>
<g>
</g>
</svg>
