<?xml version="1.0" encoding="iso-8859-1"?>
<!-- Generator: Adobe Illustrator 19.0.0, SVG Export Plug-In . SVG Version: 6.00 Build 0)  -->
<svg version="1.1" id="Layer_1" xmlns="http://www.w3.org/2000/svg" xmlns:xlink="http://www.w3.org/1999/xlink" x="0px" y="0px"
	 viewBox="0 0 495.2 495.2" style="enable-background:new 0 0 495.2 495.2;" xml:space="preserve">
<path style="fill:#491E3C;" d="M247.6,250.4c-52,0-96-148.8-113.6-243.2v336c0,25.6,20.8,46.4,46.4,46.4H314
	c25.6,0,46.4-20.8,46.4-46.4V7.2C343.6,101.6,299.6,250.4,247.6,250.4z"/>
<path style="fill:#FF6700;" d="M247.6,236c-52,0-96-140.8-113.6-235.2v200c17.6,94.4,62.4,122.4,113.6,122.4c52,0,96-28,113.6-122.4
	V0C343.6,95.2,299.6,236,247.6,236z"/>
<path style="fill:#CE391B;" d="M247.6,236c-52,0-96-140.8-113.6-235.2v200c17.6,94.4,62.4,122.4,113.6,122.4c52,0,96-28,113.6-122.4
	V0C343.6,95.2,299.6,236,247.6,236z"/>
<path style="fill:#AA2A07;" d="M247.6,288.8c-52,0-96-140.8-113.6-235.2v136.8c17.6,94.4,62.4,122.4,113.6,122.4
	c52,0,96-28,113.6-122.4V53.6C343.6,148,299.6,288.8,247.6,288.8z"/>
<path style="fill:#D85039;" d="M247.6,236c-52,0-96-140.8-113.6-235.2v30.4c17.6,94.4,62.4,235.2,113.6,235.2
	c52,0,96-140.8,113.6-235.2V0C343.6,95.2,299.6,236,247.6,236z"/>
<path style="fill:#E07055;" d="M247.6,236c-52,0-96-140.8-113.6-235.2v12.8c17.6,94.4,62.4,235.2,113.6,235.2
	c52,0,96-140.8,113.6-235.2V0C343.6,95.2,299.6,236,247.6,236z"/>
<path style="fill:#1E0313;" d="M407.6,372.8c0,15.2-0.8,27.2-16,27.2H104.4c-15.2,0-16-12-16-27.2l0,0c0-15.2,12-39.2,27.2-39.2h264
	C394.8,333.6,407.6,357.6,407.6,372.8L407.6,372.8z"/>
<path style="fill:#350D27;" d="M115.6,338.4h264c15.2,0,27.2,23.2,27.2,38.4c0-1.6,0-3.2,0-4.8c0-15.2-12-39.2-27.2-39.2h-264
	c-15.2,0-27.2,24-27.2,39.2c0,1.6,0,3.2,0,4.8C88.4,362.4,100.4,338.4,115.6,338.4z"/>
<g>
	<path style="fill:#1E0313;" d="M110.8,345.6c-26.4,2.4-33.6-51.2-39.2-84.8v122.4c0,9.6,7.2,16.8,16.8,16.8h22.4
		C110.8,400,110.8,345.6,110.8,345.6z"/>
	<path style="fill:#1E0313;" d="M384.4,345.6c26.4,2.4,33.6-51.2,39.2-84.8v122.4c0,9.6-7.2,16.8-16.8,16.8h-22.4L384.4,345.6
		L384.4,345.6z"/>
</g>
<path style="fill:#7A1805;" d="M247.6,288c-32,0-59.2,1.6-75.2,3.2c2.4,3.2,5.6,5.6,8.8,8.8c16.8,1.6,40,18.4,67.2,18.4
	c26.4,0,50.4-17.6,67.2-18.4c3.2-2.4,5.6-5.6,8.8-8.8C306.8,289.6,279.6,288,247.6,288z"/>
<path style="fill:#602551;" d="M247.6,312.8c-52,0-96-28-113.6-122.4v10.4c17.6,94.4,62.4,125.6,113.6,125.6
	c52,0,96-30.4,113.6-125.6v-10.4C343.6,284.8,299.6,312.8,247.6,312.8z"/>
<ellipse style="fill:#932106;" cx="247.6" cy="294.4" rx="44" ry="3.2"/>
<path style="fill:#1E0313;" d="M248.4,264.8v-4c0,0.8,0,1.6,0,1.6c0-0.8,0-1.6,0-1.6V264.8c-6.4,33.6-14.4,84-39.2,80.8V400h22.4
	c8,0,15.2-5.6,16.8-13.6c1.6,8,8,13.6,16.8,13.6h22.4v-54.4C262,348,254,298.4,248.4,264.8z"/>
<g>
	<path style="fill:#602551;" d="M71.6,260.8v14.4c6.4,33.6,13.6,87.2,39.2,84.8v-14.4C85.2,348.8,78,294.4,71.6,260.8z"/>
	<path style="fill:#602551;" d="M384.4,345.6V360c26.4,2.4,33.6-51.2,39.2-84.8v-14.4C417.2,294.4,410,348.8,384.4,345.6z"/>
</g>
<path style="fill:#491E3C;" d="M248.4,264.8v-4c0,0.8,0,1.6,0,1.6c0-0.8,0-1.6,0-1.6V264.8c-6.4,33.6-14.4,84-39.2,80.8V360
	c24.8,2.4,32.8-47.2,38.4-80.8v-4c0,0.8,0,1.6,0,1.6c0-0.8,0-1.6,0-1.6v4c6.4,33.6,13.6,83.2,38.4,80.8v-14.4
	C262,348,254,298.4,248.4,264.8z"/>
<g>
	<path style="fill:#1E0313;" d="M400.4,403.2c0,2.4-2.4,4.8-4.8,4.8H100.4c-2.4,0-4.8-2.4-4.8-4.8l0,0c0-2.4-13.6-4.8-10.4-4.8
		h325.6C413.2,398.4,400.4,400.8,400.4,403.2L400.4,403.2z"/>
	<path style="fill:#1E0313;" d="M179.6,489.6c0,1.6,0,4,0,5.6h136c0-1.6,0-4,0-5.6c0-45.6,29.6-81.6,48.8-81.6v-4.8
		c0-16-12.8-28.8-28.8-28.8H158.8c-16,0-28.8,12.8-28.8,28.8v4.8C150,408,179.6,444.8,179.6,489.6z"/>
</g>
<path style="opacity:0.2;fill:#602551;enable-background:new    ;" d="M357.2,152c0,29.6-49.6,79.2-109.6,79.2S138,181.6,138,152
	s49.6-72.8,109.6-72.8S357.2,122.4,357.2,152z"/>
<path style="fill:#FF9700;" d="M357.2,152c0,29.6-49.6,66.4-109.6,66.4S138,181.6,138,152s49.6-72.8,109.6-72.8
	S357.2,122.4,357.2,152z"/>
<g>
	<path style="fill:#FFBC00;" d="M247.6,79.2c60.8,0,109.6,43.2,109.6,72.8"/>
	<path style="fill:#FFBC00;" d="M138,152c0-29.6,49.6-72.8,109.6-72.8"/>
</g>
<path style="fill:#FF7F00;" d="M357.2,152c0,29.6-49.6,66.4-109.6,66.4S138,181.6,138,152"/>
<g>
	<path style="fill:#FF6700;" d="M357.2,152c0,29.6-49.6,66.4-109.6,66.4"/>
	<path style="fill:#FF6700;" d="M247.6,218.4c-60.8,0-109.6-36.8-109.6-66.4"/>
</g>
<g>
	<path style="fill:#491E3C;" d="M215.6,352.8c0,4-3.2,7.2-7.2,7.2h-93.6c-4,0-7.2-3.2-7.2-7.2l0,0c0-4,3.2-7.2,7.2-7.2h93.6
		C212.4,345.6,215.6,348.8,215.6,352.8L215.6,352.8z"/>
	<path style="fill:#491E3C;" d="M387.6,352.8c0,4-3.2,7.2-7.2,7.2h-93.6c-4,0-7.2-3.2-7.2-7.2l0,0c0-4,3.2-7.2,7.2-7.2h93.6
		C384.4,345.6,387.6,348.8,387.6,352.8L387.6,352.8z"/>
	<path style="fill:#491E3C;" d="M341.2,408.8c0,0.8-0.8,1.6-1.6,1.6h-184c-0.8,0-1.6-0.8-1.6-1.6l0,0c0-0.8,0.8-1.6,1.6-1.6h184
		C340.4,407.2,341.2,408,341.2,408.8L341.2,408.8z"/>
	<path style="fill:#491E3C;" d="M158.8,428c0.8,0.8,1.6,2.4,2.4,3.2H334c0.8-0.8,1.6-2.4,2.4-3.2H158.8z"/>
	<path style="fill:#491E3C;" d="M170.8,448c0.8,0.8,0.8,2.4,1.6,3.2h151.2c0.8-0.8,0.8-2.4,1.6-3.2H170.8z"/>
	<path style="fill:#491E3C;" d="M177.2,468c0,0.8,0.8,2.4,0.8,3.2h139.2c0-0.8,0.8-2.4,0.8-3.2H177.2z"/>
	<path style="fill:#491E3C;" d="M315.6,492c0-0.8,0-1.6,0-1.6c0-0.8,0-0.8,0-1.6h-136c0,0.8,0,0.8,0,1.6c0,0.8,0,1.6,0,1.6H315.6z"
		/>
</g>
<path style="fill:#FFE000;" d="M266,148.8c0,29.6-12.8,61.6-18.4,61.6s-18.4-32-18.4-61.6s12.8-61.6,18.4-61.6
	C253.2,87.2,266,119.2,266,148.8z"/>
<path style="fill:#FF9700;" d="M229.2,152c0.8,28.8,12.8,58.4,18.4,58.4c5.6,0,17.6-29.6,18.4-58.4H229.2z"/>
<ellipse style="fill:#491E3C;" cx="247.6" cy="148.8" rx="10.4" ry="53.6"/>
<path style="fill:#1E0313;" d="M247.6,95.2c5.6,0,10.4,24,10.4,53.6s-4.8,53.6-10.4,53.6"/>
<circle style="fill:#997A92;" cx="245.2" cy="105.6" r="2.4"/>
<circle style="fill:#754167;" cx="242.8" cy="113.6" r="0.8"/>
<g>
</g>
<g>
</g>
<g>
</g>
<g>
</g>
<g>
</g>
<g>
</g>
<g>
</g>
<g>
</g>
<g>
</g>
<g>
</g>
<g>
</g>
<g>
</g>
<g>
</g>
<g>
</g>
<g>
</g>
</svg>
