<?xml version="1.0" encoding="iso-8859-1"?>
<!-- Generator: Adobe Illustrator 19.0.0, SVG Export Plug-In . SVG Version: 6.00 Build 0)  -->
<svg version="1.1" id="Layer_1" xmlns="http://www.w3.org/2000/svg" xmlns:xlink="http://www.w3.org/1999/xlink" x="0px" y="0px"
	 viewBox="0 0 512 512" style="enable-background:new 0 0 512 512;" xml:space="preserve">
<g>
	<path style="fill:#E65F58;" d="M315.429,237.714c-27.723,0-50.286,22.558-50.286,50.286s22.563,50.286,50.286,50.286
		s50.286-22.558,50.286-50.286S343.152,237.714,315.429,237.714z"/>
	<path style="fill:#E65F58;" d="M274.286,173.714c0-10.085-8.205-18.286-18.286-18.286c-10.08,0-18.286,8.201-18.286,18.286
		S245.92,192,256,192C266.08,192,274.286,183.799,274.286,173.714z"/>
	<path style="fill:#E65F58;" d="M169.143,256c-17.643,0-32,14.357-32,32c0,17.643,14.357,32,32,32s32-14.357,32-32
		C201.143,270.357,186.786,256,169.143,256z"/>
</g>
<path style="fill:#E4AD40;" d="M475.482,237.714h-47.92c-4.5,0-8.321-3.268-9.027-7.71c-4.027-25.33-14.134-49.723-29.241-70.54
	c-2.634-3.638-2.241-8.656,0.938-11.835l33.893-33.897c3.438-3.437,5.33-8.018,5.321-12.897c-0.009-4.884-1.911-9.473-5.357-12.924
	c-7.134-7.134-18.723-7.147-25.822-0.04l-33.893,33.897c-3.17,3.183-8.196,3.58-11.83,0.938
	c-20.822-15.107-45.214-25.219-70.554-29.237c-4.437-0.706-7.705-4.536-7.705-9.032v-47.92c0-10.054-8.205-18.232-18.286-18.232
	c-10.08,0-18.286,8.179-18.286,18.232v47.92c0,4.496-3.268,8.326-7.705,9.031c-25.339,4.018-49.732,14.129-70.554,29.237
	c-3.625,2.643-8.652,2.245-11.83-0.938l-33.893-33.897c-3.429-3.429-8-5.317-12.875-5.317c-0.009,0-0.018,0-0.027,0
	c-4.884,0.005-9.473,1.906-12.92,5.357c-3.455,3.455-5.357,8.045-5.357,12.933c-0.009,4.875,1.884,9.451,5.321,12.884l33.893,33.902
	c3.179,3.179,3.571,8.196,0.938,11.835c-15.107,20.817-25.214,45.21-29.241,70.54c-0.705,4.442-4.527,7.71-9.027,7.71h-47.92
	c-10.054,0-18.232,8.201-18.232,18.286c0,10.085,8.179,18.286,18.232,18.286h47.92c4.5,0,8.321,3.268,9.027,7.71
	c4.027,25.33,14.134,49.723,29.241,70.54c2.634,3.638,2.241,8.656-0.938,11.835l-33.893,33.897
	c-3.437,3.438-5.33,8.018-5.321,12.897c0.009,4.884,1.911,9.473,5.357,12.924c7.125,7.125,18.714,7.138,25.821,0.04l33.893-33.897
	c1.768-1.772,4.107-2.679,6.464-2.679c1.875,0,3.759,0.571,5.366,1.741c20.821,15.107,45.214,25.219,70.554,29.237
	c4.437,0.705,7.705,4.536,7.705,9.031v47.92c0,10.053,8.205,18.232,18.286,18.232c10.08,0,18.286-8.178,18.286-18.232v-47.92
	c0-4.496,3.268-8.326,7.705-9.031c25.339-4.018,49.732-14.129,70.554-29.237c3.634-2.629,8.661-2.241,11.83,0.938l33.893,33.897
	c3.429,3.429,8,5.317,12.875,5.317c0.009,0,0.018,0,0.027,0c4.884-0.005,9.473-1.906,12.92-5.357
	c3.455-3.455,5.357-8.045,5.357-12.933c0.009-4.875-1.884-9.451-5.321-12.884l-33.893-33.902c-3.178-3.178-3.571-8.196-0.938-11.835
	c15.107-20.817,25.214-45.21,29.241-70.54c0.705-4.442,4.527-7.71,9.027-7.71h47.92c10.053,0,18.232-8.201,18.232-18.286
	S485.536,237.714,475.482,237.714z M169.143,338.286c-27.723,0-50.286-22.558-50.286-50.286s22.563-50.286,50.286-50.286
	s50.286,22.558,50.286,50.286S196.866,338.286,169.143,338.286z M219.429,173.714c0-20.165,16.402-36.571,36.571-36.571
	s36.571,16.406,36.571,36.571S276.17,210.286,256,210.286S219.429,193.88,219.429,173.714z M315.429,356.571
	c-37.813,0-68.571-30.759-68.571-68.571s30.759-68.571,68.571-68.571S384,250.187,384,288S353.241,356.571,315.429,356.571z"/>
<g>
	<path style="fill:#314E55;" d="M292.571,173.714c0-20.165-16.402-36.571-36.571-36.571s-36.571,16.406-36.571,36.571
		S235.83,210.286,256,210.286S292.571,193.88,292.571,173.714z M237.714,173.714c0-10.085,8.205-18.286,18.286-18.286
		c10.08,0,18.286,8.201,18.286,18.286S266.08,192,256,192C245.92,192,237.714,183.799,237.714,173.714z"/>
	<path style="fill:#314E55;" d="M315.429,219.429c-37.813,0-68.571,30.759-68.571,68.571s30.759,68.571,68.571,68.571
		S384,325.813,384,288S353.241,219.429,315.429,219.429z M315.429,338.286c-27.723,0-50.286-22.558-50.286-50.286
		s22.563-50.286,50.286-50.286s50.286,22.558,50.286,50.286S343.152,338.286,315.429,338.286z"/>
	<path style="fill:#314E55;" d="M475.482,219.429h-40.286c-4.661-22.83-13.759-44.79-26.643-64.268l28.5-28.496
		c6.902-6.897,10.696-16.08,10.679-25.857c-0.009-9.759-3.821-18.933-10.714-25.826c-14.25-14.259-37.446-14.272-51.679-0.04
		l-28.5,28.5c-19.473-12.88-41.438-21.982-64.268-26.638V36.518C292.571,16.384,276.17,0,256,0s-36.571,16.384-36.571,36.518v40.286
		c-22.83,4.656-44.795,13.759-64.268,26.638l-28.5-28.5c-6.884-6.884-16.045-10.674-25.804-10.674c-0.018,0-0.036,0-0.045,0
		c-9.768,0.013-18.938,3.817-25.83,10.714c-6.902,6.902-10.714,16.08-10.714,25.848c-0.009,9.768,3.786,18.942,10.679,25.83
		l28.5,28.5c-12.884,19.477-21.982,41.437-26.643,64.268H36.518C16.384,219.429,0,235.835,0,256
		c0,20.165,16.384,36.571,36.518,36.571h40.286c4.661,22.83,13.759,44.79,26.643,64.268l-28.5,28.496
		c-6.902,6.897-10.696,16.08-10.679,25.857c0.009,9.759,3.821,18.933,10.714,25.826c14.259,14.268,37.455,14.281,51.679,0.04
		l28.5-28.5c19.473,12.88,41.437,21.982,64.268,26.638v40.286C219.429,495.616,235.83,512,256,512s36.571-16.384,36.571-36.518
		v-40.286c22.83-4.656,44.795-13.759,64.268-26.638l28.5,28.5c6.884,6.884,16.045,10.674,25.804,10.674c0.018,0,0.036,0,0.045,0
		c9.768-0.014,18.938-3.817,25.83-10.714c6.902-6.902,10.714-16.08,10.714-25.848c0.009-9.768-3.786-18.942-10.679-25.83l-28.5-28.5
		c12.884-19.478,21.982-41.438,26.643-64.268h40.286C495.616,292.571,512,276.165,512,256
		C512,235.835,495.616,219.429,475.482,219.429z M475.482,274.286h-47.92c-4.5,0-8.321,3.268-9.027,7.71
		c-4.027,25.33-14.134,49.723-29.241,70.54c-2.634,3.638-2.241,8.656,0.938,11.835l33.893,33.902
		c3.438,3.433,5.33,8.009,5.321,12.884c0,4.888-1.902,9.478-5.357,12.933c-3.446,3.451-8.036,5.353-12.92,5.357
		c-0.009,0-0.018,0-0.027,0c-4.875,0-9.446-1.888-12.875-5.317l-33.893-33.897c-3.17-3.178-8.196-3.567-11.83-0.938
		c-20.822,15.107-45.214,25.219-70.554,29.237c-4.437,0.705-7.705,4.536-7.705,9.031v47.92c0,10.054-8.205,18.232-18.286,18.232
		c-10.08,0-18.286-8.179-18.286-18.232v-47.92c0-4.496-3.268-8.326-7.705-9.031c-25.339-4.018-49.732-14.129-70.554-29.237
		c-1.607-1.17-3.491-1.741-5.366-1.741c-2.357,0-4.696,0.906-6.464,2.679l-33.893,33.897c-7.107,7.098-18.696,7.085-25.821-0.04
		c-3.446-3.451-5.348-8.04-5.357-12.924c-0.009-4.88,1.884-9.46,5.321-12.897l33.893-33.897c3.179-3.179,3.571-8.196,0.938-11.835
		c-15.107-20.817-25.214-45.21-29.241-70.54c-0.705-4.442-4.526-7.71-9.027-7.71h-47.92c-10.054,0-18.232-8.201-18.232-18.286
		c0-10.085,8.179-18.286,18.232-18.286h47.92c4.5,0,8.321-3.268,9.027-7.71c4.027-25.33,14.134-49.723,29.241-70.54
		c2.634-3.638,2.241-8.656-0.938-11.835l-33.893-33.902c-3.437-3.433-5.33-8.009-5.321-12.884c0-4.888,1.902-9.478,5.357-12.933
		c3.446-3.451,8.036-5.353,12.92-5.357c0.009,0,0.018,0,0.027,0c4.875,0,9.446,1.888,12.875,5.317l33.893,33.897
		c3.179,3.183,8.205,3.58,11.83,0.938c20.821-15.107,45.214-25.219,70.554-29.237c4.437-0.706,7.705-4.536,7.705-9.032v-47.92
		c0-10.054,8.205-18.232,18.286-18.232c10.08,0,18.286,8.179,18.286,18.232v47.92c0,4.496,3.268,8.326,7.705,9.031
		c25.339,4.018,49.732,14.129,70.554,29.237c3.634,2.643,8.661,2.245,11.83-0.938l33.893-33.897
		c7.098-7.107,18.688-7.094,25.822,0.04c3.446,3.451,5.348,8.04,5.357,12.924c0.009,4.88-1.884,9.46-5.321,12.897l-33.893,33.897
		c-3.178,3.179-3.571,8.196-0.938,11.835c15.107,20.817,25.214,45.21,29.241,70.54c0.705,4.442,4.527,7.71,9.027,7.71h47.92
		c10.053,0,18.232,8.201,18.232,18.286C493.715,266.085,485.536,274.286,475.482,274.286z"/>
	<path style="fill:#314E55;" d="M169.143,237.714c-27.723,0-50.286,22.558-50.286,50.286s22.563,50.286,50.286,50.286
		s50.286-22.558,50.286-50.286S196.866,237.714,169.143,237.714z M169.143,320c-17.643,0-32-14.357-32-32c0-17.643,14.357-32,32-32
		s32,14.357,32,32C201.143,305.643,186.786,320,169.143,320z"/>
</g>
<g>
</g>
<g>
</g>
<g>
</g>
<g>
</g>
<g>
</g>
<g>
</g>
<g>
</g>
<g>
</g>
<g>
</g>
<g>
</g>
<g>
</g>
<g>
</g>
<g>
</g>
<g>
</g>
<g>
</g>
</svg>
